<svg xmlns="http://www.w3.org/2000/svg" xmlns:xlink="http://www.w3.org/1999/xlink" fill="none" version="1.1" width="102" height="102" viewBox="0 0 102 102"><g><g><g><path d="M13.5,30.75L13.5,81.75Q13.5,84.5459,15.47703,86.523Q17.45406,88.5,20.25,88.5L81.75,88.5Q84.5459,88.5,86.523,86.523Q88.5,84.5459,88.5,81.75L88.5,30.75Q88.5,27.95406,86.523,25.97703Q84.5459,24,81.75,24L20.25,24Q17.45406,24,15.47703,25.977029Q13.5,27.95406,13.5,30.75ZM20.25,84Q18,84,18,81.75L18,30.75Q18,28.5,20.25,28.5L81.75,28.5Q84,28.5,84,30.75L84,81.75Q84,84,81.75,84L20.25,84Z" fill-rule="evenodd" fill="#333333" fill-opacity="1"/></g><g><path d="M29.25,20.25L29.25,26.25Q29.25,26.360500000000002,29.26083,26.4705Q29.27167,26.5805,29.29323,26.689Q29.314799999999998,26.7974,29.34688,26.903100000000002Q29.37897,27.0089,29.42127,27.111Q29.46357,27.2132,29.51568,27.3106Q29.56778,27.408099999999997,29.62919,27.5Q29.6906,27.591900000000003,29.76073,27.6774Q29.83085,27.7628,29.90901,27.841Q29.98717,27.9192,30.07262,27.9893Q30.15806,28.0594,30.24997,28.1208Q30.34187,28.1822,30.43936,28.234299999999998Q30.536841,28.2864,30.638962,28.328699999999998Q30.741084,28.371000000000002,30.84686,28.403100000000002Q30.952635,28.435200000000002,31.061047,28.4568Q31.169458,28.4783,31.279461,28.4892Q31.389465,28.5,31.5,28.5L70.5,28.5Q70.6105,28.5,70.7205,28.4892Q70.8305,28.4783,70.93889999999999,28.4568Q71.04740000000001,28.435200000000002,71.1531,28.403100000000002Q71.2589,28.371000000000002,71.36099999999999,28.328699999999998Q71.4632,28.2864,71.5606,28.234299999999998Q71.65809999999999,28.1822,71.75,28.1208Q71.84190000000001,28.0594,71.9274,27.9893Q72.0128,27.9192,72.09100000000001,27.841Q72.1691,27.7628,72.2393,27.6774Q72.3094,27.591900000000003,72.3708,27.5Q72.4322,27.408099999999997,72.48429999999999,27.3106Q72.5364,27.2132,72.5787,27.111Q72.62100000000001,27.0089,72.6531,26.903100000000002Q72.68520000000001,26.7974,72.7068,26.689Q72.72829999999999,26.5805,72.7392,26.4705Q72.75,26.360500000000002,72.75,26.25L72.75,20.25Q72.75,17.45406,70.773,15.47703Q68.7959,13.5,66,13.5L36,13.5Q33.20406,13.5,31.227029,15.477029Q29.25,17.45406,29.25,20.25ZM33.75,24L68.25,24L68.25,20.25Q68.25,19.31802,67.59100000000001,18.65901Q66.932,18,66,18L36,18Q35.06802,18,34.40901,18.65901Q33.75,19.31802,33.75,20.25L33.75,24Z" fill-rule="evenodd" fill="#333333" fill-opacity="1"/></g><g><path d="M45.9130240625,52.70078125Q43.8056640625,50.59368125,43.8056640625,47.61328125L39.3056640625,47.61328125Q39.3056640625,52.45780125,42.7312340625,55.88296125Q46.1564040625,59.30768125,51.0001040625,59.30768125Q55.8437640625,59.30768125,59.268964062500004,55.88296125Q62.6945640625,52.45780125,62.6945640625,47.61328350173L58.1945640625,47.61328350173Q58.1945640625,50.59368125,56.0871640625,52.70079125Q53.9799640625,54.80772125,51.0001040625,54.80772125Q48.0202140625,54.80772125,45.9130240625,52.70078125Z" fill-rule="evenodd" fill="#333333" fill-opacity="1"/></g><g transform="matrix(1,0,0,-1,0,96)"><path d="M15,48L15,52.5L87,52.5L87,48L15,48Z" fill="#333333" fill-opacity="1"/></g></g></g></svg>